<?xml version="1.0" encoding="utf-8"?>
<!-- Generator: Adobe Illustrator 16.0.0, SVG Export Plug-In . SVG Version: 6.00 Build 0)  -->
<!DOCTYPE svg PUBLIC "-//W3C//DTD SVG 1.1//EN" "http://www.w3.org/Graphics/SVG/1.1/DTD/svg11.dtd">
<svg version="1.1" id="Layer_1" xmlns="http://www.w3.org/2000/svg" xmlns:xlink="http://www.w3.org/1999/xlink" x="0px" y="0px"
	 width="1024px" height="1024px" viewBox="0 0 1024 1024" enable-background="new 0 0 1024 1024" xml:space="preserve">
<path fill-rule="evenodd" clip-rule="evenodd" fill="#191717" d="M511.265,6C228.943,6,0,234.909,0,517.307
	c0,225.905,146.489,417.544,349.677,485.163c25.563,4.656,34.899-11.099,34.899-24.648c0-12.137-0.442-44.322-0.687-86.988
	c-142.229,30.896-172.235-68.539-172.235-68.539c-23.251-59.035-56.769-74.79-56.769-74.79
	c-46.425-31.697,3.511-31.083,3.511-31.083c51.311,3.618,78.317,52.723,78.317,52.723c45.608,78.099,119.666,55.539,148.802,42.482
	c4.641-33.044,17.854-55.604,32.457-68.355c-113.537-12.935-232.897-56.768-232.897-252.709c0-55.817,19.93-101.46,52.631-137.199
	c-5.251-12.934-22.8-64.92,5.015-135.313c0,0,42.929-13.748,140.596,52.413c40.784-11.339,84.53-17.011,128.009-17.209
	c43.433,0.198,87.141,5.87,128.001,17.209c97.628-66.161,140.481-52.413,140.481-52.413c27.892,70.393,10.328,122.379,5.084,135.313
	c32.739,35.739,52.539,81.382,52.539,137.199c0,196.433-119.543,239.652-233.446,252.282c18.358,15.816,34.701,47.021,34.701,94.713
	c0,68.355-0.619,123.467-0.619,140.264c0,13.671,9.198,29.552,35.159,24.587c203.013-67.745,349.341-259.258,349.341-485.102
	C1022.567,234.909,793.663,6,511.265,6z"/>
</svg>
