<?xml version="1.0" encoding="utf-8"?>
<!-- Generator: Adobe Illustrator 16.0.0, SVG Export Plug-In . SVG Version: 6.00 Build 0)  -->
<!DOCTYPE svg PUBLIC "-//W3C//DTD SVG 1.1//EN" "http://www.w3.org/Graphics/SVG/1.1/DTD/svg11.dtd">
<svg version="1.1" id="Layer_1" xmlns="http://www.w3.org/2000/svg" xmlns:xlink="http://www.w3.org/1999/xlink" x="0px" y="0px"
	 width="1024px" height="306.238px" viewBox="0 0 1024 306.238" enable-background="new 0 0 1024 306.238" xml:space="preserve">
<path fill="#F1B06D" d="M135.948,209.833c-11.006,22.814-5.408,37.246-5.408,37.246s10.556,11.029,45.921,0.625
	c35.362-10.415,38.265-25.403,38.265-25.403s-2.223-16.104-24.727-28.374c-22.505-12.279-32.336-10.081-32.336-10.081
	S146.951,187.018,135.948,209.833z"/>
<path fill="#F1B06D" d="M197.811,183.497c18.3,17.516,33.755,16.65,33.755,16.65s13.752-6.632,14.775-43.481
	c1.029-36.851-12.327-44.238-12.327-44.238s-16.005-2.868-34.63,14.744c-18.626,17.615-19.571,27.634-19.571,27.634
	S179.513,165.98,197.811,183.497z"/>
<path fill="#F1B06D" d="M191.876,116.52c22.319-11.988,26.276-26.962,26.276-26.962s-2.061-15.119-36.79-27.49
	c-34.732-12.363-45.887-1.94-45.887-1.94s-7.674,14.338,3.324,37.49c10.998,23.158,20.23,27.157,20.23,27.157
	S169.565,128.507,191.876,116.52z"/>
<path fill="#F1B06D" d="M126.348,101.46c-4.501-24.925-17.521-33.312-17.521-33.312s-15.018-2.72-37.509,26.49
	c-22.497,29.212-16.031,43.036-16.031,43.036s11.264,11.733,36.686,8.43c25.42-3.303,32.08-10.857,32.08-10.857
	S130.858,126.387,126.348,101.46z"/>
<path fill="#F1B06D" d="M91.783,159.134c-25.099-3.417-37.098,6.361-37.098,6.361s-7.229,13.452,13.604,43.873
	c20.829,30.416,35.975,28.54,35.975,28.54s14.637-7.085,19.352-32.286c4.715-25.195-0.409-33.859-0.409-33.859
	S116.876,162.552,91.783,159.134z"/>
<path fill="#FFFFFF" d="M267.246,71.667c0,0-16.966-32.275-25.494-39.905c-8.531-7.627-45.095-14.453-45.095-14.453
	S167.033,0.531,152.573,0.013c-14.452-0.513-44.978,14.812-44.978,14.812s-34,4.757-45.832,11.918
	C49.932,33.903,34.078,65.16,34.078,65.16S9.706,89.547,4.009,101.739c-5.692,12.194,0.188,47.356,0.188,47.356
	s-7.101,34.755-2.827,47.27c4.272,12.515,27.985,38.204,27.985,38.204s14.791,32.599,25.5,39.908
	c10.704,7.3,45.089,14.447,45.089,14.447s28.751,16.714,44.082,17.297c15.333,0.589,44.978-14.812,44.978-14.812
	s32.205-3.146,45.829-11.915c13.629-8.773,27.686-38.424,27.686-38.424s26.956-25.466,30.069-36.573
	c3.118-11.118-0.186-47.363-0.186-47.363s5.971-35.679,2.832-47.266C292.087,98.28,267.246,71.667,267.246,71.667z M266.089,157.503
	c-1.237,44.196-18.409,55.872-23.646,58.394l-2.542,1.229l-2.816,0.151c-0.706,0.041-3.139,0.109-6.819-0.438
	c1.62,4.105,2.115,7.019,2.225,7.826l0.317,2.323l-0.442,2.298c-1.107,5.705-8.005,25.299-50.419,37.777
	c-42.414,12.488-58.823-0.24-62.84-4.444l-1.954-2.037l-1.021-2.631c-0.255-0.656-1.067-2.959-1.69-6.622
	c-3.401,2.809-6.022,4.179-6.757,4.538l-2.107,1.011l-2.321,0.297c-5.768,0.708-26.532,0.203-51.513-36.277
	c-24.979-36.479-17.943-56.017-15.192-61.139l1.336-2.49l2.188-1.776c0.547-0.453,2.511-1.938,5.786-3.657
	c-3.715-2.371-5.846-4.439-6.408-5.028l-1.621-1.688l-0.995-2.118c-2.459-5.265-8.398-25.166,18.576-60.198
	c13.421-17.43,26.959-28.248,40.247-32.158c6.789-1.998,11.499-1.495,13.209-1.186l2.777,0.503l2.376,1.529
	c0.591,0.383,2.603,1.761,5.265,4.368c1.097-4.267,2.407-6.926,2.79-7.643l1.104-2.065l1.711-1.597
	c1.271-1.188,4.955-4.163,11.746-6.161c13.285-3.91,30.533-2.154,51.255,5.223c41.654,14.833,47.439,34.779,48.224,40.541
	l0.38,2.793l-0.721,2.728c-0.183,0.68-0.873,3.017-2.522,6.348c4.382-0.271,7.305,0.156,8.128,0.308l2.306,0.412l2.047,1.133
	C250.825,100.692,267.327,113.308,266.089,157.503z"/>
<path fill="#F1B06D" d="M152.135,141.261l1.133,0.443c1.909,0.68,5.874,1.706,11.866,1.55c-2.032,4.605-2.704,8.008-2.892,9.998
	l-0.073,1.214c-0.05,1.917,0.18,6.028,2.217,11.765c-5.022-0.517-8.469-0.1-10.425,0.338l-1.167,0.297
	c-1.842,0.548-5.682,2.043-10.517,5.747c-1.055-4.934-2.514-8.086-3.537-9.811l-0.646-1.011c-1.089-1.589-3.688-4.772-8.7-8.216
	c4.293-2.491,6.832-4.83,8.224-6.408l0.766-0.933c1.175-1.521,3.402-4.986,5.129-10.826
	C147.269,138.774,150.298,140.467,152.135,141.261z"/>
<g id="_x31_BaLMr_1_">
	<g>
		<path fill-rule="evenodd" clip-rule="evenodd" fill="#FFFFFF" d="M1024,177.629c-0.322,4.783-0.594,9.571-0.969,14.354
			c-0.708,8.878-1.928,17.646-5.355,25.978c-4.179,10.122-11.764,16.343-22.132,19.214c-12.858,3.563-25.998,3.36-39.168,2.61
			c-6.878-0.391-13.588-1.501-20.017-4.007c-10.254-3.985-16.245-11.764-19.319-22.022c-3.396-11.353-4.095-23.08-4.22-34.808
			c-0.114-11.587,0.011-23.194,0.5-34.771c0.428-9.977,1.688-19.896,5.679-29.238c4.096-9.57,11.39-15.39,21.236-18.229
			c9.336-2.688,18.922-2.985,28.55-2.954c8.909,0.026,17.756,0.537,26.425,2.887c12.369,3.35,20.267,11.191,24.039,23.335
			c2.97,9.556,3.762,19.423,4.272,29.338c0.125,2.339,0.312,4.673,0.479,7.013C1024,163.427,1024,170.529,1024,177.629z
			 M990.719,143.509c-0.334-5.517-1.396-11.065-2.824-16.416c-1.428-5.319-5.335-8.503-10.857-9.654
			c-5.543-1.156-11.107-1.156-16.661-0.317c-6.314,0.948-10.826,4.434-12.441,10.686c-1.229,4.762-2.23,9.701-2.418,14.593
			c-0.458,12.441-0.562,24.898-0.51,37.345c0.031,8.019,0.25,16.068,2.261,23.914c2.001,7.752,5.877,11.478,13.838,12.306
			c4.647,0.479,9.43,0.37,14.108-0.036c6.439-0.558,11.024-4.027,12.941-10.353c0.99-3.287,1.896-6.7,2.136-10.102
			c0.656-9.503,0.938-19.032,1.376-28.551L990.719,143.509z"/>
		<path fill-rule="evenodd" clip-rule="evenodd" fill="#FFFFFF" d="M342.327,178.578c0.312,4.783,0.552,9.576,0.956,14.354
			c0.792,9.347,2.164,18.584,6.105,27.232c3.181,6.971,8.026,12.353,15.119,15.541c7.175,3.22,14.825,4.049,22.549,4.387
			c12.955,0.558,25.836-0.349,38.621-2.428c6.161-1,12.26-2.406,18.285-3.61c0-7.549,0-14.619,0-21.673
			c-8.69,0.688-17.235,1.656-25.806,1.964c-7.935,0.281-15.921,0.239-23.832-0.364c-7.633-0.589-13.197-4.882-15.394-12.322
			c-1.521-5.152-2.766-10.597-2.857-15.932c-0.253-14.65,0.05-29.316,0.412-43.967c0.091-3.726,0.914-7.508,1.938-11.113
			c2.235-7.861,7.805-11.904,17.006-11.628c11.485,0.344,22.952,1.344,34.424,2.104c4.304,0.286,8.6,0.709,13.044,1.078
			c0-8.096,0-16.021,0-24.163c-5.864-0.776-11.613-1.704-17.399-2.267c-8.544-0.839-17.106-1.475-25.669-2.095
			c-10.837-0.786-21.595-0.213-31.997,3.132c-8.052,2.589-14.098,7.757-17.88,15.447c-3.345,6.799-4.955,14.088-5.658,21.532
			c-0.787,8.305-1.068,16.656-1.589,24.987L342.327,178.578z"/>
		<path fill-rule="evenodd" clip-rule="evenodd" fill="#FFFFFF" d="M741.267,201.262c-0.678,6.96-2.553,13.733-5.866,20.001
			c-5.252,9.909-14.046,14.729-24.57,16.927c-11.576,2.418-23.299,2.303-35.042,1.61c-6.867-0.401-13.577-1.495-20.021-3.98
			c-10.363-3.991-16.364-11.806-19.459-22.158c-3.387-11.353-4.074-23.074-4.199-34.803c-0.12-11.581,0-23.184,0.5-34.755
			c0.438-9.978,1.688-19.897,5.71-29.229c4.116-9.56,11.409-15.354,21.257-18.177c9.336-2.679,18.922-2.976,28.54-2.938
			c8.83,0.025,17.588,0.547,26.195,2.839c12.482,3.324,20.412,11.181,24.236,23.408c2.845,9.097,3.73,18.49,4.179,27.915
			c0.302,6.294,0.062,12.613,0.062,18.918C743.09,166.85,742.361,189.827,741.267,201.262z M710.112,166.934
			c0-7.878,0.344-15.776-0.114-23.628c-0.323-5.438-1.396-10.909-2.813-16.187c-1.428-5.325-5.325-8.514-10.827-9.67
			c-5.554-1.172-11.117-1.167-16.671-0.334c-6.305,0.948-10.837,4.408-12.452,10.665c-1.229,4.762-2.245,9.701-2.428,14.593
			c-0.469,12.437-0.562,24.894-0.516,37.346c0.031,8.018,0.286,16.052,2.25,23.913c1.631,6.523,5.299,10.993,12.176,12.181
			c6.185,1.063,12.4,1.126,18.526-0.369c4.939-1.209,8.398-4.361,9.951-9.181c1.115-3.485,2.105-7.132,2.365-10.764"/>
		<path fill-rule="evenodd" clip-rule="evenodd" fill="#FFFFFF" d="M822.219,220.46c0,5.888,0,11.707,0,18.151
			c-5.002,0.459-10.045,1.282-15.088,1.298c-6.002,0.021-11.931-1.048-17.183-4.283c-6.804-4.193-10.378-10.701-11.951-18.219
			c-1.115-5.283-1.938-10.737-1.949-16.114c-0.156-51.188-0.104-102.376-0.114-153.568c0-0.62,0-1.235,0-2.011
			c11.065,0,21.976,0,33.125,0c0,1.083,0,2.084,0,3.089c0,51.979,0,103.96,0.01,155.934c0,1.423-0.062,2.86,0.146,4.252
			c0.896,6.085,3.949,9.325,9.982,10.758C820.177,219.976,821.157,220.21,822.219,220.46z"/>
		<path fill-rule="evenodd" clip-rule="evenodd" fill="#FFFFFF" d="M845.998,45.683c11.19,0,22.038,0,33.125,0
			c0,1.125,0,2.125,0,3.131c0,51.979,0,103.954,0.01,155.934c0,1.417-0.062,2.86,0.146,4.251c0.896,6.086,3.948,9.315,9.992,10.748
			c0.979,0.229,1.959,0.464,3.012,0.714c0,5.897,0,11.718,0,18.151c-5.002,0.459-10.056,1.282-15.099,1.298
			c-6.002,0.016-11.931-1.048-17.183-4.288c-6.804-4.199-10.367-10.701-11.951-18.225c-1.104-5.282-1.928-10.732-1.949-16.114
			c-0.146-51.188-0.094-102.381-0.104-153.568C845.998,47.1,845.998,46.48,845.998,45.683z"/>
		<path fill-rule="evenodd" clip-rule="evenodd" fill="#FFFFFF" d="M507.242,237.654c-11.144,0-21.931,0-32.898,0
			c0-47.082,0-94.123,0-141.299c9.709,0,19.374,0,29.241,0c0.568,3.329,1.144,6.694,1.767,10.347
			c12.842-7.33,26.403-11.931,41.171-13.207c0,8.695,0,17.333,0,25.727c-5.973,1.453-11.988,2.584-17.778,4.412
			c-6.797,2.147-13.416,4.866-20.066,7.451c-0.641,0.25-1.086,1.271-1.389,2.026c-0.219,0.547-0.044,1.245-0.044,1.875
			c0,33.131,0,66.256-0.003,99.386C507.242,235.387,507.242,236.409,507.242,237.654z"/>
		<path fill-rule="evenodd" clip-rule="evenodd" fill="#FFFFFF" d="M601.651,96.662c0,47.114,0,93.951,0,140.93
			c-11.014,0-21.944,0-33.077,0c0-46.916,0-93.868,0-140.93C579.582,96.662,590.512,96.662,601.651,96.662z"/>
		<path fill-rule="evenodd" clip-rule="evenodd" fill="#FFFFFF" d="M566.073,66.736c0.37-3.985,0.589-7.997,1.161-11.957
			c0.626-4.287,3.512-6.882,7.648-7.105c6.814-0.365,13.671-0.36,20.485-0.011c3.772,0.192,6.31,2.651,6.966,6.591
			c1.235,7.435,1.392,14.885-0.214,22.272c-0.729,3.329-2.959,5.585-6.293,6.355c-6.992,1.615-14.088,1.626-21.09,0.209
			c-5.116-1.037-7.56-4.324-7.981-9.717c-0.178-2.204-0.271-4.407-0.406-6.611C566.254,66.757,566.161,66.747,566.073,66.736z"/>
	</g>
</g>
</svg>
