<?xml version="1.0" encoding="utf-8"?>
<!-- Generator: Adobe Illustrator 16.0.0, SVG Export Plug-In . SVG Version: 6.00 Build 0)  -->
<!DOCTYPE svg PUBLIC "-//W3C//DTD SVG 1.1//EN" "http://www.w3.org/Graphics/SVG/1.1/DTD/svg11.dtd">
<svg version="1.1" id="Layer_1" xmlns="http://www.w3.org/2000/svg" xmlns:xlink="http://www.w3.org/1999/xlink" x="0px" y="0px"
	 width="299.5px" height="306.238px" viewBox="0 0 299.5 306.238" enable-background="new 0 0 299.5 306.238" xml:space="preserve">
<path fill="#F1B06D" d="M135.948,209.833c-11.006,22.813-5.408,37.246-5.408,37.246s10.556,11.028,45.921,0.625
	c35.362-10.415,38.265-25.403,38.265-25.403s-2.223-16.104-24.727-28.374c-22.505-12.278-32.336-10.081-32.336-10.081
	S146.951,187.018,135.948,209.833z"/>
<path fill="#F1B06D" d="M197.811,183.497c18.3,17.516,33.755,16.649,33.755,16.649s13.752-6.631,14.775-43.48
	c1.029-36.851-12.327-44.238-12.327-44.238s-16.005-2.868-34.63,14.744c-18.626,17.615-19.571,27.635-19.571,27.635
	S179.513,165.98,197.811,183.497z"/>
<path fill="#F1B06D" d="M191.876,116.52c22.319-11.988,26.276-26.962,26.276-26.962s-2.062-15.119-36.79-27.49
	c-34.732-12.363-45.887-1.94-45.887-1.94s-7.674,14.338,3.324,37.49c10.998,23.158,20.23,27.157,20.23,27.157
	S169.565,128.507,191.876,116.52z"/>
<path fill="#F1B06D" d="M126.348,101.46c-4.501-24.925-17.521-33.312-17.521-33.312s-15.018-2.72-37.509,26.49
	c-22.497,29.212-16.031,43.036-16.031,43.036s11.264,11.733,36.686,8.43c25.42-3.303,32.08-10.857,32.08-10.857
	S130.858,126.387,126.348,101.46z"/>
<path fill="#F1B06D" d="M91.783,159.134c-25.099-3.417-37.098,6.361-37.098,6.361s-7.229,13.452,13.604,43.873
	c20.829,30.416,35.975,28.54,35.975,28.54s14.637-7.085,19.353-32.286c4.715-25.195-0.409-33.859-0.409-33.859
	S116.876,162.552,91.783,159.134z"/>
<path fill="#FFFFFF" d="M267.246,71.667c0,0-16.966-32.275-25.494-39.905c-8.531-7.627-45.095-14.453-45.095-14.453
	S167.033,0.531,152.573,0.013c-14.452-0.513-44.979,14.812-44.979,14.812s-34,4.757-45.832,11.918
	C49.932,33.903,34.078,65.16,34.078,65.16S9.706,89.547,4.009,101.739c-5.692,12.194,0.188,47.355,0.188,47.355
	s-7.102,34.755-2.827,47.271c4.272,12.515,27.985,38.203,27.985,38.203s14.791,32.6,25.5,39.908
	c10.704,7.301,45.089,14.447,45.089,14.447s28.751,16.714,44.082,17.297c15.333,0.589,44.978-14.812,44.978-14.812
	s32.205-3.146,45.829-11.915c13.629-8.773,27.686-38.424,27.686-38.424s26.956-25.467,30.069-36.573
	c3.118-11.118-0.186-47.363-0.186-47.363s5.971-35.679,2.832-47.266C292.087,98.28,267.246,71.667,267.246,71.667z M266.089,157.503
	c-1.237,44.196-18.409,55.872-23.646,58.394l-2.542,1.229l-2.816,0.151c-0.706,0.041-3.139,0.108-6.819-0.438
	c1.62,4.104,2.115,7.019,2.225,7.826l0.317,2.323l-0.442,2.298c-1.107,5.705-8.005,25.299-50.419,37.776
	c-42.414,12.488-58.823-0.239-62.84-4.443l-1.954-2.037l-1.021-2.631c-0.255-0.656-1.067-2.959-1.69-6.622
	c-3.401,2.81-6.022,4.179-6.757,4.538l-2.107,1.011l-2.321,0.297c-5.768,0.708-26.532,0.203-51.513-36.276
	c-24.979-36.479-17.943-56.018-15.192-61.14l1.336-2.489l2.188-1.776c0.547-0.453,2.511-1.938,5.786-3.657
	c-3.715-2.371-5.847-4.439-6.408-5.028l-1.621-1.688l-0.995-2.118c-2.459-5.265-8.398-25.166,18.576-60.198
	c13.421-17.43,26.959-28.248,40.247-32.158c6.789-1.998,11.499-1.495,13.209-1.186l2.777,0.503l2.376,1.529
	c0.591,0.383,2.603,1.761,5.265,4.368c1.097-4.267,2.407-6.926,2.79-7.643l1.104-2.065l1.711-1.597
	c1.271-1.188,4.955-4.163,11.746-6.161c13.285-3.91,30.533-2.154,51.255,5.223c41.654,14.833,47.439,34.779,48.224,40.541
	l0.38,2.793l-0.721,2.728c-0.184,0.68-0.873,3.018-2.522,6.348c4.382-0.271,7.305,0.156,8.128,0.308l2.306,0.412l2.047,1.133
	C250.825,100.692,267.327,113.308,266.089,157.503z"/>
<path fill="#F1B06D" d="M152.135,141.261l1.133,0.443c1.909,0.68,5.874,1.706,11.866,1.55c-2.032,4.605-2.704,8.008-2.892,9.998
	l-0.073,1.214c-0.05,1.917,0.18,6.028,2.217,11.765c-5.021-0.517-8.469-0.1-10.425,0.338l-1.167,0.298
	c-1.842,0.548-5.682,2.043-10.517,5.747c-1.055-4.935-2.514-8.086-3.537-9.812l-0.646-1.011c-1.089-1.589-3.688-4.771-8.7-8.216
	c4.293-2.491,6.832-4.83,8.224-6.408l0.766-0.933c1.175-1.521,3.402-4.986,5.129-10.826
	C147.269,138.774,150.298,140.467,152.135,141.261z"/>
</svg>
